<?xml version="1.0" standalone="no"?>
<!DOCTYPE svg PUBLIC "-//W3C//DTD SVG 20010904//EN"
 "http://www.w3.org/TR/2001/REC-SVG-20010904/DTD/svg10.dtd">
<svg version="1.0" xmlns="http://www.w3.org/2000/svg"
 width="1487.000000pt" height="1369.000000pt" viewBox="0 0 1487.000000 1369.000000"
 preserveAspectRatio="xMidYMid meet">

<g transform="translate(0.000000,1369.000000) scale(0.100000,-0.100000)"
fill="#000000" stroke="none">
<path d="M11432 11675 c-261 -29 -475 -55 -477 -57 -2 -1 243 -204 543 -450
316 -258 551 -443 556 -438 5 5 -14 217 -45 502 l-54 493 -25 2 c-14 1 -238
-23 -498 -52z"/>
<path d="M9197 11430 c-384 -43 -700 -80 -701 -82 -2 -1 247 -203 552 -447
l555 -444 661 72 c364 39 680 74 703 77 l42 6 -547 449 c-300 247 -551 448
-557 448 -5 -1 -324 -36 -708 -79z"/>
<path d="M6555 11139 c-385 -43 -710 -79 -723 -81 -18 -2 92 -95 519 -438 298
-239 549 -440 558 -446 12 -9 185 7 731 67 393 43 718 80 723 82 7 2 -1068
872 -1097 888 -6 3 -326 -29 -711 -72z"/>
<path d="M4220 10884 c-266 -30 -485 -56 -486 -57 -1 -1 13 -137 32 -302 l33
-300 -969 -3135 c-533 -1724 -972 -3158 -975 -3186 -21 -156 90 -344 237 -402
29 -12 1531 -478 3338 -1036 1807 -558 3380 -1045 3495 -1081 243 -76 332 -89
448 -61 152 36 295 146 362 279 25 50 335 1039 1006 3212 533 1727 976 3162
984 3188 l14 48 -52 -29 c-29 -16 -312 -166 -630 -332 l-578 -302 -480 148
c-263 81 -478 152 -477 156 2 4 284 157 628 339 344 182 628 334 633 338 6 6
-1320 423 -1349 424 -6 0 -304 -152 -664 -337 l-653 -338 -579 178 c-318 99
-578 181 -578 184 0 3 293 156 651 340 488 251 646 336 632 342 -14 6 -1195
372 -1349 418 l-42 12 -650 -336 c-357 -185 -657 -336 -666 -336 -19 0 -958
289 -968 299 -4 3 248 138 560 298 312 161 605 313 651 337 l84 44 -149 47
c-82 25 -158 49 -169 52 -28 9 19 18 175 33 69 7 131 16 137 19 8 4 -204 181
-535 446 -469 377 -552 440 -582 442 -19 1 -253 -23 -520 -53z m1458 -4371
c974 -301 1772 -552 1772 -558 0 -6 -44 -154 -99 -330 -70 -228 -103 -319
-112 -318 -26 5 -3543 1094 -3548 1098 -4 4 185 628 196 648 2 4 7 7 11 7 4 1
805 -246 1780 -547z m866 -1335 c1623 -501 2953 -913 2955 -914 4 -4 -59 -217
-69 -234 -6 -9 -5896 1803 -5911 1819 -6 6 62 241 70 241 3 0 1332 -410 2955
-912z m2249 374 c549 -170 1000 -312 1003 -314 4 -5 -191 -647 -200 -655 -4
-4 -2046 624 -2053 631 -2 2 30 111 71 242 41 131 86 279 101 328 26 86 28 88
53 82 15 -3 476 -145 1025 -314z m-2404 -961 c1619 -501 2945 -912 2947 -913
1 -2 -13 -54 -33 -117 -35 -111 -36 -112 -62 -106 -38 10 -5885 1817 -5893
1821 -3 2 4 39 18 82 13 42 29 94 35 115 8 29 14 37 27 33 9 -3 1342 -415
2961 -915z m-205 -605 c1626 -503 2959 -916 2961 -918 2 -2 -38 -139 -88 -303
-77 -247 -96 -300 -110 -299 -26 3 -5891 1815 -5900 1824 -7 6 170 610 178
610 1 0 1333 -411 2959 -914z"/>
</g>
</svg>
